<svg width="94" height="35" viewBox="0 0 94 35" fill="none" xmlns="http://www.w3.org/2000/svg">
    <path fill-rule="evenodd" clip-rule="evenodd" d="M92.5482 0.982371C88.0056 5.35449 83.0931 9.32559 77.8644 12.8522C72.6013 16.3192 66.9603 19.1814 61.0469 21.3853C49.1545 25.8106 36.3999 27.5283 23.7039 26.4144C17.16 25.8727 10.7123 24.4514 4.53487 22.191C5.48584 21.5462 6.46323 20.9407 7.4646 20.376C7.52723 20.3405 7.58985 20.3049 7.65245 20.2693C8.4042 19.8423 9.15508 19.4158 9.92315 19.0247C10.7375 18.7333 11.4725 18.2559 12.0698 17.6304C12.2099 17.3921 12.2317 17.1024 12.1289 16.8458C12.026 16.5892 11.8102 16.3948 11.5443 16.3192C10.6491 16.2685 9.75834 16.4784 8.97989 16.9234C8.00505 17.3267 7.05894 17.7963 6.14818 18.3287C4.40515 19.3752 2.77763 20.603 1.29272 21.9916C0.870418 22.3824 0.87517 22.848 1.09938 23.1976C1.18589 23.5502 1.40615 23.8692 1.73393 24.0742C4.15654 25.8504 6.59569 27.6022 9.05139 29.3295L12.6512 31.8676C13.8479 32.8259 15.1152 33.6919 16.442 34.458C17.1355 34.835 17.9969 34.5997 18.3931 33.9252C18.7086 33.3881 18.6393 32.7253 18.2635 32.2606C18.253 32.2386 18.2411 32.216 18.2275 32.1927C18.2149 32.1683 18.1679 32.1295 18.0928 32.0789C17.3697 31.4719 16.6188 30.8994 15.8426 30.3636C15.3894 30.0296 14.9264 29.7063 14.4399 29.403C14.3894 29.3748 14.3367 29.3531 14.2829 29.338L10.7827 26.9C14.2011 27.7599 17.6691 28.4124 21.1677 28.8529C27.6891 29.6116 34.268 29.6214 40.7756 28.8821C53.7364 27.4594 66.1788 23.1296 77.1782 16.2144C83.4326 12.389 88.9537 7.48548 93.489 1.72797C93.9095 1.17638 93.0252 0.535994 92.5482 0.982371Z" fill="#181E4B" fill-opacity="0.2"/>
    </svg>
    