<svg width="99" height="50" viewBox="0 0 99 50" fill="none" xmlns="http://www.w3.org/2000/svg">
<g clip-path="url(#clip0_153_178)">
<path d="M42.3615 2.44331C45.2521 1.72065 45.2349 3.45847 42.3099 7.67398L40.4516 8.43105C39.0235 8.89561 35.4962 10.5474 29.9042 13.3864C24.3122 16.2082 18.3761 20.3205 12.1131 25.7232C5.85005 31.1259 3.21751 36.219 4.21546 41.0023C4.18105 43.0326 4.8693 45.8372 6.2802 49.4333V49.9323H5.97049C3.07986 47.7987 1.16998 44.7532 0.223638 40.7786C-0.412989 37.5782 0.189226 34.0854 2.03028 30.2656C4.12943 26.4287 8.67185 22.1099 15.6403 17.275C22.6088 12.4401 28.6826 8.77517 33.8616 6.24587C39.0407 3.71657 41.8625 2.44331 42.3443 2.46052L42.3615 2.44331ZM8.31052 10.4098C8.25891 10.0484 8.2417 9.6871 8.25891 9.37739C8.25891 9.05047 8.36214 8.74076 8.517 8.41384C8.67185 8.08693 8.7923 7.77722 8.87833 7.4503C8.96436 7.12338 8.94715 6.79646 8.86112 6.46955C8.77509 6.14263 8.60303 5.85013 8.37935 5.64365C8.15567 5.41997 7.84596 5.2135 7.4158 4.98982C7.00286 4.76614 6.52109 4.6629 6.0049 4.6629C5.48872 4.6629 4.98974 4.74893 4.52517 4.921C4.06061 5.09306 3.64766 5.33394 3.28633 5.67807C2.925 6.02219 2.6325 6.43514 2.40882 6.93411C2.16793 7.43309 2.01308 7.94928 1.92705 8.44825C1.84102 8.94723 1.84102 9.429 1.92705 9.87636C2.01308 10.3237 2.20234 10.8055 2.51205 11.2873C2.82177 11.769 3.14868 12.1476 3.52722 12.3885C3.88855 12.6466 4.38752 12.8874 5.00695 13.1111C5.62637 13.352 6.21137 13.438 6.77918 13.3864C7.34698 13.3348 7.74272 13.2316 7.98361 13.0595C8.22449 12.8874 8.43097 12.6638 8.58582 12.354C8.74068 12.0443 8.82671 11.8207 8.86112 11.6658C8.89553 11.5109 8.82671 11.3561 8.65465 11.184C8.48259 11.012 8.37935 10.7539 8.32773 10.3753L8.31052 10.4098Z" fill="#F0B13F"/>
<path d="M27.2202 33.5348C24.5016 33.5348 22.6433 33.3455 21.6798 32.9498C20.699 32.5712 19.9075 32.0895 19.3053 31.5389C18.7031 30.9883 18.2213 30.2656 17.8772 29.3881C17.5331 28.5106 17.3266 27.5126 17.2922 26.3942C17.2578 25.2758 17.3266 23.8993 17.5159 22.3164C17.7052 20.7162 17.9116 19.0988 18.1697 17.447C18.4278 15.7952 18.6515 14.0746 18.858 12.2508C19.0644 10.4269 19.2193 8.89559 19.357 7.63954C19.4946 6.38349 20.2001 4.50802 21.4733 2.01313C22.0067 0.808702 22.7982 0.137663 23.8133 1.34464e-05C24.8457 -0.137636 25.3791 0.619435 25.4479 2.27122C25.1726 4.98979 24.9489 6.9685 24.7597 8.22455C24.5704 9.46339 24.3811 10.8571 24.1747 12.3884C23.9682 13.9198 23.6757 16.0189 23.2627 18.7203C22.8498 21.4217 22.6433 23.1423 22.6089 23.9165C22.5745 24.6908 22.6089 25.3619 22.7121 25.9641C22.8154 26.5663 23.0391 27.0653 23.4176 27.5298C23.7789 27.9772 24.1919 28.3041 24.622 28.5106C25.0522 28.7171 25.9125 28.8891 27.1857 29.0612V33.552L27.2202 33.5348Z" fill="#F0B13F"/>
<path d="M26.463 28.9063C29.0095 28.5621 31.3496 28.0632 33.4487 27.3749C35.5479 26.6867 37.8535 25.6715 40.3828 24.3294C40.5893 24.2606 40.8473 24.2262 41.1915 24.2262C41.5872 24.2262 41.9141 24.3122 42.1722 24.5015C42.4303 24.6908 42.6196 24.9316 42.7744 25.2242C42.9293 25.5167 43.0325 25.8608 43.1013 26.2393C43.1702 26.6178 43.2046 26.962 43.2046 27.3061C43.1358 27.9771 42.6712 28.6482 41.7937 29.3192C41.0538 29.7838 40.2623 30.3172 39.402 30.885C38.5417 31.4528 37.6298 32.0722 36.649 32.7432C35.7715 33.3799 34.894 34.1025 34.0337 34.9112C33.1562 35.7199 32.3647 36.563 31.6593 37.4233C31.4528 37.6298 31.3151 37.8879 31.2291 38.1976C31.1431 38.5245 31.1087 38.8514 31.1087 39.1783C31.1087 39.5052 31.1775 39.7805 31.3151 39.987C31.4528 40.1935 31.6765 40.2967 32.0206 40.2967C32.4508 40.2967 32.8465 40.1247 33.2078 39.7633C33.5691 39.402 33.9993 38.9202 34.5499 38.2836C36.1329 36.6662 37.6642 35.1349 39.1439 33.6724C40.6237 32.2098 41.8109 31.1431 42.7228 30.472C44.0305 29.7666 45.0629 29.3536 45.8027 29.216C46.5426 29.0783 47.4717 28.9923 48.5729 28.9579H50.8441V33.5003H49.7429C46.6802 33.638 44.7187 34.0165 43.824 34.6359C42.9293 35.2553 42.2238 35.7543 41.6732 36.1501C41.1226 36.5458 40.6237 36.9415 40.1419 37.3545C39.6601 37.7674 39.1784 38.2492 38.731 38.7654C38.2836 39.2816 37.7502 39.901 37.148 40.6064C36.0124 41.8797 35.2554 42.7056 34.8768 43.0841C34.4467 43.5143 33.9649 43.8584 33.4659 44.0993C32.9669 44.3402 32.4163 44.4606 31.8485 44.4606C30.6097 44.3574 29.7666 44.1681 29.3364 43.8756C28.9063 43.5831 28.545 43.2218 28.2525 42.7916C27.9599 42.3615 27.7707 41.8625 27.6502 41.3291C27.5298 40.7957 27.4782 40.2623 27.4782 39.7117C27.4782 38.9374 27.5986 38.2492 27.8395 37.6126C28.0804 36.9932 28.3729 36.3909 28.7514 35.8231C29.4913 34.98 30.2828 34.2402 31.1259 33.6035C31.969 32.9669 32.8293 32.3303 33.6896 31.6937C33.724 31.6248 33.7928 31.5732 33.8961 31.5388C33.0874 31.9345 32.3819 32.2615 31.7797 32.5196C31.1775 32.7776 30.5925 32.9669 30.0419 33.1046C29.4913 33.2422 28.9407 33.3455 28.3729 33.4143C27.8051 33.4831 27.2029 33.5175 26.5318 33.5175V28.9235L26.463 28.9063Z" fill="#F0B13F"/>
<path d="M45.4242 44.9252C48.1772 43.1357 51.3431 42.2582 54.9048 42.2582C55.7135 42.2582 56.4361 42.2926 57.0727 42.3787C57.7094 42.4647 58.2428 42.5852 58.6901 42.7572C60.2043 43.2562 60.9613 43.824 60.9613 44.4262C60.9613 45.3037 59.929 45.9403 57.8814 46.3361C56.7802 46.3705 55.6102 46.4049 54.4058 46.4565C53.2014 46.5082 52.0141 46.7146 50.8785 47.0932C49.7773 47.4029 48.4697 48.1427 46.9899 49.3127C46.7491 49.416 46.5426 49.4848 46.3361 49.5192C46.1296 49.5536 45.9576 49.5708 45.7855 49.5708C44.3058 49.2611 43.5659 48.5385 43.5659 47.4029C43.5659 46.5598 44.1853 45.7339 45.4242 44.9252ZM68.2051 33.5347V28.8547C67.4652 28.9235 66.6221 28.7342 65.693 28.3041C64.7639 27.8739 64.1273 27.3921 63.8003 26.8932C63.4734 26.3942 63.1981 25.7403 62.9744 24.9489C62.7508 24.1574 62.6131 23.2627 62.5959 22.2475C62.5787 21.2323 62.3894 20.372 62.0453 19.6494C61.7012 18.9267 61.0818 18.5998 60.2387 18.6858C59.3956 18.7719 58.7417 19.1332 58.3288 19.7698C57.9158 20.4064 57.5545 21.2323 57.2448 22.2475C56.9351 23.2627 56.6254 24.209 56.2813 25.1209C55.9371 26.0328 55.1973 26.9104 54.0445 27.7707C52.8916 28.631 51.5668 29.0095 50.087 28.9063V33.5519C52.5475 33.2766 54.1993 32.9497 55.0596 32.5368C55.9199 32.1238 56.7114 31.6248 57.4513 31.0054C58.1911 30.386 58.7417 29.6978 59.1203 28.9407C59.4988 28.1836 59.8429 28.3385 60.1526 29.388C60.4623 30.4376 61.2194 31.3668 62.3894 32.141C63.5595 32.9153 65.521 33.3799 68.2395 33.5519L68.2051 33.5347Z" fill="#F0B13F"/>
<path d="M93.5153 3.8542C96.6124 3.81978 98.3159 5.41995 98.6256 8.6375C98.9353 11.8551 97.1286 15.5028 93.154 19.5806L88.8181 23.5208L85.893 26.4459C89.2826 29.3365 87.4244 30.2828 80.301 29.2677C76.6705 31.384 74.0552 32.6573 72.4378 33.0702C70.8204 33.4832 69.3235 33.638 67.947 33.5004V29.0096L69.5644 28.8547C72.7992 28.1837 74.5886 27.0309 74.9499 25.3791L71.9733 20.8883C71.3022 19.6494 71.0269 18.6515 71.1646 17.9116C71.199 15.7953 74.8639 12.3884 82.1593 7.67396C86.9942 4.81774 90.7796 3.54448 93.4981 3.83699L93.5153 3.8542ZM77.376 18.359C77.376 20.5786 78.3223 22.0755 80.1978 22.8498H81.1097C84.1724 22.0755 87.9406 19.2193 92.4486 14.2811C93.4637 13.0079 93.7046 11.4937 93.2056 9.73869L92.7067 9.13648L92.1561 9.03324C89.1966 9.39457 85.8414 10.8227 82.0733 13.266C78.9417 15.5544 77.3932 17.2406 77.3932 18.359H77.376ZM91.7259 41.2948C91.6743 40.9334 91.6571 40.5721 91.6743 40.2624C91.6915 39.9527 91.7775 39.6258 91.9324 39.2988C92.0872 38.9719 92.2077 38.6622 92.2937 38.3353C92.3797 38.0084 92.3625 37.6815 92.2765 37.3545C92.1905 37.0276 92.0184 36.7351 91.7947 36.5286C91.571 36.3222 91.2613 36.0985 90.8312 35.8748C90.401 35.6511 89.9365 35.5479 89.4203 35.5479C88.9041 35.5479 88.4051 35.6339 87.9406 35.806C87.476 35.9781 87.063 36.2189 86.7017 36.5631C86.3404 36.9072 86.0479 37.3201 85.8242 37.8191C85.6005 38.3181 85.4285 38.8343 85.3424 39.3333C85.2564 39.8322 85.2564 40.314 85.3424 40.7614C85.4285 41.2087 85.6177 41.6905 85.9274 42.1723C86.2371 42.654 86.5641 43.0326 86.9426 43.2735C87.3211 43.5143 87.8029 43.7724 88.4223 43.9961C89.0417 44.2198 89.6268 44.323 90.1946 44.2714C90.7624 44.2198 91.1581 44.1166 91.399 43.9445C91.6399 43.7724 91.8463 43.5488 92.0012 43.239C92.1561 42.9293 92.2421 42.7057 92.2765 42.5508C92.3109 42.3959 92.2421 42.2411 92.07 42.069C91.898 41.897 91.7947 41.6389 91.7431 41.2603L91.7259 41.2948Z" fill="#F0B13F"/>
</g>
<defs>
<clipPath id="clip0_153_178">
<rect width="98.66" height="49.9322" fill="white"/>
</clipPath>
</defs>
</svg>
